<svg width="19" height="12" viewBox="0 0 19 12" fill="none" xmlns="http://www.w3.org/2000/svg">
<path fill-rule="evenodd" clip-rule="evenodd" d="M17.4524 0H16.3936C15.8088 0 15.3348 0.50368 15.3348 1.125V10.875C15.3348 11.4963 15.8088 12 16.3936 12H17.4524C18.0372 12 18.5112 11.4963 18.5112 10.875V1.125C18.5112 0.50368 18.0372 0 17.4524 0ZM11.4524 2.625H12.5112C13.096 2.625 13.57 3.12868 13.57 3.75V10.875C13.57 11.4963 13.096 12 12.5112 12H11.4524C10.8676 12 10.3936 11.4963 10.3936 10.875V3.75C10.3936 3.12868 10.8676 2.625 11.4524 2.625ZM7.57008 5.25H6.51125C5.92648 5.25 5.45243 5.75368 5.45243 6.375V10.875C5.45243 11.4963 5.92648 12 6.51125 12H7.57008C8.15485 12 8.6289 11.4963 8.6289 10.875V6.375C8.6289 5.75368 8.15485 5.25 7.57008 5.25ZM2.62888 7.5H1.57005C0.985282 7.5 0.51123 8.00368 0.51123 8.625V10.875C0.51123 11.4963 0.985282 12 1.57005 12H2.62888C3.21365 12 3.6877 11.4963 3.6877 10.875V8.625C3.6877 8.00368 3.21365 7.5 2.62888 7.5Z" fill="white" fill-opacity="0.9"/>
</svg>
