<svg width="84" height="12" viewBox="0 0 84 12" fill="none" xmlns="http://www.w3.org/2000/svg">
<path fill-rule="evenodd" clip-rule="evenodd" d="M17.4524 0H16.3936C15.8088 0 15.3348 0.50368 15.3348 1.125V10.875C15.3348 11.4963 15.8088 12 16.3936 12H17.4524C18.0372 12 18.5112 11.4963 18.5112 10.875V1.125C18.5112 0.50368 18.0372 0 17.4524 0ZM11.4524 2.625H12.5112C13.096 2.625 13.57 3.12868 13.57 3.75V10.875C13.57 11.4963 13.096 12 12.5112 12H11.4524C10.8676 12 10.3936 11.4963 10.3936 10.875V3.75C10.3936 3.12868 10.8676 2.625 11.4524 2.625ZM7.57008 5.25H6.51125C5.92648 5.25 5.45243 5.75368 5.45243 6.375V10.875C5.45243 11.4963 5.92648 12 6.51125 12H7.57008C8.15485 12 8.6289 11.4963 8.6289 10.875V6.375C8.6289 5.75368 8.15485 5.25 7.57008 5.25ZM2.62888 7.5H1.57005C0.985282 7.5 0.51123 8.00368 0.51123 8.625V10.875C0.51123 11.4963 0.985282 12 1.57005 12H2.62888C3.21365 12 3.6877 11.4963 3.6877 10.875V8.625C3.6877 8.00368 3.21365 7.5 2.62888 7.5Z" fill="white" fill-opacity="0.9"/>
<path fill-rule="evenodd" clip-rule="evenodd" d="M32.5117 2.49216C34.8331 2.49226 37.0658 3.42402 38.7483 5.09485C38.875 5.22384 39.0775 5.22222 39.2023 5.0912L40.4133 3.81448C40.4765 3.74803 40.5117 3.65802 40.5112 3.56436C40.5107 3.47071 40.4745 3.38114 40.4105 3.31546C35.9946 -1.10515 29.028 -1.10515 24.6121 3.31546C24.5481 3.38109 24.5118 3.47063 24.5112 3.56429C24.5106 3.65794 24.5458 3.74798 24.6089 3.81448L25.8204 5.0912C25.9451 5.22241 26.1477 5.22404 26.2744 5.09485C27.957 3.42391 30.19 2.49215 32.5117 2.49216ZM32.5117 6.64588C33.7871 6.6458 35.0171 7.14102 35.9626 8.03532C36.0905 8.16224 36.2919 8.15949 36.4166 8.02912L37.6262 6.7524C37.69 6.68543 37.7253 6.59458 37.7244 6.50018C37.7235 6.40578 37.6864 6.3157 37.6214 6.2501C34.7422 3.45256 30.2835 3.45256 27.4044 6.2501C27.3394 6.3157 27.3023 6.40582 27.3014 6.50026C27.3005 6.59469 27.336 6.68553 27.3999 6.7524L28.6092 8.02912C28.7338 8.15949 28.9353 8.16224 29.0632 8.03532C30.008 7.14161 31.237 6.64644 32.5117 6.64588ZM34.9349 9.44061C34.9367 9.53528 34.9011 9.62655 34.8364 9.69287L32.7439 11.8987C32.6825 11.9635 32.5989 12 32.5117 12C32.4244 12 32.3408 11.9635 32.2794 11.8987L30.1866 9.69287C30.1219 9.6265 30.0864 9.5352 30.0883 9.44053C30.0902 9.34586 30.1294 9.25622 30.1967 9.19276C31.5331 8.0121 33.4903 8.0121 34.8266 9.19276C34.8938 9.25627 34.933 9.34594 34.9349 9.44061Z" fill="white" fill-opacity="0.9"/>
<path opacity="0.4" fill-rule="evenodd" clip-rule="evenodd" d="M49.1779 1H65.5479C66.4684 1 67.2146 1.74619 67.2146 2.66667V9.33333C67.2146 10.2538 66.4684 11 65.5479 11H49.1779C48.2574 11 47.5112 10.2538 47.5112 9.33333V2.66667C47.5112 1.74619 48.2574 1 49.1779 1ZM46.5112 2.66667C46.5112 1.19391 47.7051 0 49.1779 0H65.5479C67.0207 0 68.2146 1.19391 68.2146 2.66667V9.33333C68.2146 10.8061 67.0207 12 65.5479 12H49.1779C47.7051 12 46.5112 10.8061 46.5112 9.33333V2.66667ZM70.5112 6C70.5112 6.9245 69.995 7.75894 69.2011 8.11765V3.88235C69.995 4.24106 70.5112 5.07551 70.5112 6Z" fill="white" fill-opacity="0.9"/>
<rect x="48.4844" y="2.11768" width="17.7573" height="7.76471" rx="1.33333" fill="white" fill-opacity="0.9"/>
</svg>
